<?xml version="1.0" standalone="no"?>
<!DOCTYPE svg PUBLIC "-//W3C//DTD SVG 20010904//EN"
 "http://www.w3.org/TR/2001/REC-SVG-20010904/DTD/svg10.dtd">
<svg version="1.0" xmlns="http://www.w3.org/2000/svg"
 width="838.000000pt" height="838.000000pt" viewBox="0 0 838.000000 838.000000"
 preserveAspectRatio="xMidYMid meet">
<metadata>
Created by potrace 1.11, written by Peter Selinger 2001-2013
</metadata>
<g transform="translate(0.000000,838.000000) scale(0.100000,-0.100000)"
fill="#000000" stroke="none">
<path d="M3868 6755 c-1 -2 -48 -6 -103 -9 -118 -7 -183 -14 -290 -32 -72 -12
-168 -56 -220 -102 -57 -49 -117 -157 -130 -233 -3 -19 -10 -48 -14 -65 -12
-43 -3 -547 11 -603 3 -15 0 -16 -97 -25 -86 -9 -248 -42 -275 -56 -11 -6 -20
-9 -20 -6 0 15 -232 -87 -329 -146 -34 -21 -67 -38 -72 -38 -5 0 -9 -4 -9 -8
0 -4 -12 -15 -27 -24 -39 -23 -125 -106 -159 -153 -40 -55 -51 -76 -64 -124
-6 -24 -20 -45 -33 -52 -55 -30 -252 -164 -277 -189 -3 -3 -27 -23 -55 -44
-122 -95 -294 -292 -351 -401 -41 -80 -70 -185 -69 -259 l0 -49 -92 -69 c-173
-130 -301 -278 -377 -433 -72 -147 -98 -306 -71 -437 10 -53 10 -59 -10 -80
-40 -44 -115 -147 -115 -157 0 -6 -4 -11 -10 -11 -5 0 -10 -7 -10 -15 0 -8 -3
-15 -7 -15 -5 0 -13 -10 -19 -23 -6 -12 -29 -56 -52 -98 -67 -126 -150 -347
-169 -448 -2 -13 -10 -50 -18 -83 -7 -32 -14 -61 -14 -63 -1 -3 -1 -6 -2 -7 0
-2 -2 -14 -3 -28 -6 -54 -18 -166 -21 -190 -2 -14 -4 -42 -4 -64 -1 -32 -4
-37 -18 -31 -10 4 -22 8 -28 9 -5 2 -17 5 -25 9 -47 17 -206 64 -209 61 -8 -7
195 -233 214 -239 11 -3 90 -6 175 -8 l155 -2 155 46 155 47 170 -1 170 0 -95
-23 c-52 -13 -115 -26 -140 -30 -25 -3 -48 -8 -51 -10 -5 -2 -177 -40 -274
-59 -11 -2 -29 -6 -40 -9 -11 -2 -27 -5 -35 -5 -11 -1 -12 -3 -3 -9 6 -4 29
-6 50 -5 38 3 409 15 493 16 25 0 81 -3 125 -7 44 -4 100 -9 125 -11 115 -10
290 -34 302 -41 3 -2 9 0 13 6 3 5 15 10 26 10 41 0 511 143 559 171 10 5 0 8
-30 8 -25 -1 -80 0 -122 1 -90 2 -89 -1 -58 105 11 39 22 81 24 95 2 14 9 50
15 80 6 30 14 78 17 105 3 28 9 64 13 80 8 34 7 294 -2 341 -5 26 -2 33 20 45
59 31 162 160 218 273 69 137 99 240 120 415 4 31 12 49 28 59 23 16 293 285
363 363 23 25 72 63 110 85 89 50 73 41 295 172 105 61 194 112 199 112 5 0
18 -14 30 -31 52 -71 165 -137 265 -153 22 -4 58 -10 80 -14 58 -9 628 -9 705
2 141 18 245 68 320 154 l41 45 32 -16 c17 -10 46 -26 62 -36 17 -10 46 -27
65 -38 262 -151 419 -250 444 -280 54 -63 320 -329 354 -355 30 -22 34 -32 43
-94 8 -63 11 -81 23 -139 2 -11 9 -32 15 -47 6 -16 9 -28 7 -28 -2 0 6 -29 20
-65 28 -79 83 -182 126 -239 37 -49 147 -156 160 -156 5 0 6 -19 2 -42 -15
-96 -11 -256 11 -413 8 -64 42 -232 48 -242 3 -5 8 -20 10 -34 3 -13 7 -30 9
-38 2 -10 -30 -25 -107 -52 -133 -46 -135 -47 -110 -47 11 0 103 -3 205 -7
102 -4 316 -8 475 -9 254 -1 299 1 360 18 53 14 114 19 248 21 107 2 175 0
172 -6 -4 -5 -16 -9 -27 -9 -43 0 -7 -13 44 -16 29 -1 78 -6 108 -9 30 -3 75
-8 99 -10 168 -16 208 -22 223 -31 5 -3 21 -7 36 -10 15 -2 36 -8 47 -13 19
-9 77 -24 83 -22 1 1 16 -6 32 -14 17 -9 30 -13 30 -11 0 3 25 -4 55 -14 30
-10 55 -17 55 -14 0 3 -46 58 -102 122 -90 104 -105 117 -135 118 -18 0 -35 3
-37 5 -2 2 -6 47 -10 99 -7 104 -12 148 -26 230 -15 81 -16 88 -40 180 -12 47
-24 95 -27 108 -3 12 -9 25 -14 28 -5 3 -9 12 -9 21 0 21 -62 177 -72 181 -5
2 -8 9 -8 16 0 10 -12 34 -74 147 -25 45 -100 153 -148 211 -39 47 -39 48 -29
100 10 55 8 211 -4 263 -11 47 -11 48 -25 80 -6 17 -17 44 -24 60 -18 49 -74
148 -101 179 -14 16 -25 32 -25 35 0 10 -152 164 -210 212 -30 25 -76 60 -101
77 l-46 31 -6 79 c-18 231 -188 466 -520 716 -48 36 -89 66 -91 66 -3 0 -155
98 -165 106 -2 2 -5 14 -6 28 -9 79 -133 224 -265 313 -181 120 -397 204 -615
239 -68 11 -78 12 -129 13 l-48 1 7 113 c27 406 7 600 -75 727 -41 64 -79 96
-157 134 -93 46 -161 60 -343 72 -52 4 -120 8 -150 10 -76 5 -668 13 -672 9z"/>
</g>
</svg>
